#tb 0: 1/7
#media_type 0: video
#codec_id 0: rawvideo
#dimensions 0: 320x240
#sar 0: 1/1
0,          0,          0,        1,   115200, 0xeba70ff3
0,          1,          1,        1,   115200, 0xb986bcbd
0,          2,          2,        1,   115200, 0x8567f6cf
0,          3,          3,        1,   115200, 0xed18e21f
0,          4,          4,        1,   115200, 0x0054f5dd
0,          5,          5,        1,   115200, 0x6fedfa63
0,          6,          6,        1,   115200, 0x3226f459
0,          7,          7,        1,   115200, 0x04cab318
0,          8,          8,        1,   115200, 0xa4e0d22b
0,          9,          9,        1,   115200, 0xc2c4037c
0,         10,         10,        1,   115200, 0x32332c36
0,         11,         11,        1,   115200, 0x93892b01
0,         12,         12,        1,   115200, 0xa611fd70
0,         13,         13,        1,   115200, 0xc875b905
0,         14,         14,        1,   115200, 0xe4e2c25a
0,         15,         15,        1,   115200, 0x0fa5c984
0,         16,         16,        1,   115200, 0x7f601649
0,         17,         17,        1,   115200, 0x127c21d0
0,         18,         18,        1,   115200, 0x5cef2244
0,         19,         19,        1,   115200, 0x4194305c
0,         20,         20,        1,   115200, 0xe1342b12
0,         21,         21,        1,   115200, 0x7c13cdb3
0,         22,         22,        1,   115200, 0x274845a7
0,         23,         23,        1,   115200, 0x57d4cca0
0,         24,         24,        1,   115200, 0x9aa1765a
0,         25,         25,        1,   115200, 0x939e3b09
0,         26,         26,        1,   115200, 0xf0045ba2
0,         27,         27,        1,   115200, 0xc74ace89
0,         28,         28,        1,   115200, 0x19725c72
0,         29,         29,        1,   115200, 0x21aa9b86
0,         30,         30,        1,   115200, 0x1714b5da
0,         31,         31,        1,   115200, 0xe2fd85e2
0,         32,         32,        1,   115200, 0x1b498308
0,         33,         33,        1,   115200, 0xab1994a0
0,         34,         34,        1,   115200, 0x1cf29d03
0,         35,         35,        1,   115200, 0x7a068cd1
0,         36,         36,        1,   115200, 0x5afac88e
0,         37,         37,        1,   115200, 0x72680431
0,         38,         38,        1,   115200, 0xe982288c
0,         39,         39,        1,   115200, 0xcd3d1c48
0,         40,         40,        1,   115200, 0x05a4e5f5
0,         41,         41,        1,   115200, 0x14eb99ee
0,         42,         42,        1,   115200, 0x0fc1a8cc
0,         43,         43,        1,   115200, 0x460ed0ca
0,         44,         44,        1,   115200, 0xcaf53a3e
0,         45,         45,        1,   115200, 0x90dd14e0
0,         46,         46,        1,   115200, 0xe9531496
0,         47,         47,        1,   115200, 0xda57f8d6
0,         48,         48,        1,   115200, 0xb932f7cc
0,         49,         49,        1,   115200, 0x4669b433
0,         50,         50,        1,   115200, 0xb59e4897
0,         51,         51,        1,   115200, 0xc51dd6a1
0,         52,         52,        1,   115200, 0x0549630f
0,         53,         53,        1,   115200, 0xbd671e9b
0,         54,         54,        1,   115200, 0x0e2e7627
0,         55,         55,        1,   115200, 0x6213fc0b
0,         56,         56,        1,   115200, 0x58ee9d54
0,         57,         57,        1,   115200, 0xa5c3ce29
0,         58,         58,        1,   115200, 0x38b7d09b
0,         59,         59,        1,   115200, 0x0539a7b6
0,         60,         60,        1,   115200, 0x2f28bd54
0,         61,         61,        1,   115200, 0x5a60bc58
0,         62,         62,        1,   115200, 0x4f8fc1a3
0,         63,         63,        1,   115200, 0x58169676
0,         64,         64,        1,   115200, 0x9662b826
0,         65,         65,        1,   115200, 0x2e92e7c5
0,         66,         66,        1,   115200, 0x470214d5
0,         67,         67,        1,   115200, 0xd20929be
0,         68,         68,        1,   115200, 0xfbb40344
0,         69,         69,        1,   115200, 0xb55cb3a9
